<?xml version="1.0" encoding="UTF-8"?>
<!-- Generated by Pixelmator Pro 3.1 -->
<svg width="36" height="80" viewBox="0 0 36 80" xmlns="http://www.w3.org/2000/svg" xmlns:xlink="http://www.w3.org/1999/xlink">
    <path id="Path" fill="#d34a47" stroke="none" d="M 27.792225 77.561699 L 28.559292 64.780067 L 30.677315 61.164524 C 30.677315 61.164524 25.856678 63.136536 17.786148 63.136536 C 9.715477 63.136536 4.967915 61.200989 4.967915 61.200989 L 7.341625 65.14502 L 8.181343 77.561699 C 8.181343 78.89286 12.571308 79.971878 17.986855 79.971878 C 23.402119 79.971878 27.792225 78.89286 27.792225 77.561699 M 25.372578 17.873356 L 26.982616 11.509399 L 35.898655 2.127632 L 33.548695 0.126076 L 24.109261 10.120003 L 22.239857 17.723251 C 20.832909 17.676109 19.425266 17.652691 18.017525 17.653004 C 8.076042 17.653004 0.016819 18.786007 0.016819 20.183323 C 0.016819 21.58078 8.076042 22.713642 18.017525 22.713642 C 27.95887 22.713642 36.017952 21.58078 36.017952 20.183323 C 36.017952 19.154346 31.647068 18.268692 25.372578 17.873356"/>
    <path id="path1" fill="#ffffff" stroke="none" d="M 24.436043 21.437317 C 24.436043 21.437317 24.087349 21.515476 23.061626 21.519859 C 22.035618 21.524101 21.307137 21.513214 21.01696 21.248905 C 20.938938 21.177952 20.896255 21.037033 20.896679 20.941628 C 20.897526 20.759998 21.026432 20.653004 21.190674 20.586006 L 21.346008 20.829681 C 21.278446 20.853004 21.239857 20.880566 21.239719 20.909966 C 21.239155 21.047916 22.288765 21.142334 23.091591 21.132156 C 23.894558 21.122261 24.864735 21.056114 24.865585 20.920139 C 24.865585 20.879009 24.792225 20.840282 24.664593 20.809753 L 24.819221 20.567772 C 25.027279 20.632366 25.208904 20.757172 25.208481 20.973145 C 25.206501 21.340355 24.739223 21.396183 24.436043 21.437317"/>
    <path id="path2" fill="#d34a47" stroke="none" d="M 35.88113 2.146149 C 36.105301 1.887207 35.765087 1.224876 35.121273 0.667 C 34.477173 0.109398 33.773285 -0.132866 33.548695 0.126076 C 33.324383 0.385017 33.664734 1.047348 34.308834 1.60495 C 34.952652 2.162689 35.656818 2.405228 35.88113 2.146149 M 27.363392 46.341343 C 27.152084 44.308266 31.810318 41.363815 30.614841 41.269539 C 28.041275 41.416679 26.760422 44.285515 25.465584 47.290176 C 24.991096 48.391376 23.367493 53.087067 22.302612 52.508976 C 21.238022 51.931168 23.682827 48.069824 24.368057 45.776676 C 23.577385 46.356464 20.677738 48.609329 19.930462 46.499508 C 18.729046 47.519859 16.161839 48.072655 16.45145 45.392368 C 15.812298 46.524525 14.377808 48.105156 12.655972 47.448338 C 10.394772 46.58601 13.966217 39.383041 14.854275 39.746429 C 15.742474 40.109684 14.675053 41.75053 14.395477 42.387703 C 13.780636 43.789963 13.070389 45.552792 13.544876 45.913639 C 14.357738 46.531876 16.569752 43.574841 16.618938 43.509823 C 17.03265 42.963249 18.211308 39.387417 19.161274 39.798023 C 20.111237 40.208622 16.791801 44.929893 18.032932 45.866856 C 18.283249 46.055973 19.307419 45.750248 19.930462 45.076183 C 20.333569 44.640144 20.194912 43.674347 21.538658 40.469826 C 22.882404 37.265446 24.080002 33.274773 25.001553 33.5788 C 25.923111 33.882687 25.163536 35.930882 24.832932 36.694416 C 23.281555 40.278023 20.598869 46.198444 21.864029 45.750248 C 23.129189 45.302193 23.787987 45.275902 25.026855 43.826149 C 26.265724 42.376392 26.208622 39.988411 27.034348 40.039154 C 27.860352 40.090034 27.721699 40.855686 27.521412 41.438725 C 28.334133 40.508694 31.373852 38.549965 32.107704 40.489895 C 32.976963 42.786572 27.758728 46.104031 29.059788 45.934841 C 30.328339 45.769894 32.383465 44.468269 33.260918 43.284805 L 35.676186 21.570885 C 35.676186 21.570885 33.245796 23.582191 17.783745 23.582191 C 2.321554 23.582191 0.142614 21.61272 0.142614 21.61272 L 2.19887 41.432369 C 3.290318 38.330318 5.88212 32.055832 9.967491 32.26643 C 11.825867 32.362263 14.306713 35.940636 12.181625 36.061909 C 11.28212 36.113075 11.190811 34.275761 10.125652 34.005936 C 9.357031 33.811165 8.286926 34.436043 7.595335 35.113075 C 6.216114 36.462898 3.249752 41.788551 3.641697 44.443676 C 4.14106 47.828693 8.312792 43.267422 9.018658 41.913216 C 9.51576 40.959293 9.851589 38.133003 10.938797 38.429543 C 12.02615 38.726078 10.84396 41.642826 10.055832 44.221626 C 9.17046 47.117317 8.705017 50.171875 7.595335 49.820496 C 6.485512 49.469398 8.293287 45.731167 8.227844 45.076183 C 7.184734 46.038586 5.263039 48.475052 2.804523 47.269115 L 4.081554 59.576958 C 4.081554 59.576958 7.475618 62.258659 17.699928 62.258659 C 27.92424 62.258659 31.443958 59.618797 31.443958 59.618797 L 33.029682 45.363396 C 31.732296 46.626713 27.626289 48.87011 27.363392 46.341343"/>
</svg>
