<?xml version="1.0" encoding="UTF-8"?>
<!-- Generated by Pixelmator Pro 3.1 -->
<svg width="70" height="68" viewBox="0 0 70 68" xmlns="http://www.w3.org/2000/svg" xmlns:xlink="http://www.w3.org/1999/xlink">
    <path id="Path" fill="#24292f" fill-rule="evenodd" stroke="none" d="M 34.895714 0 C 15.599286 0 -0 15.583332 -0 34.862041 C -0 50.272541 9.995 63.317207 23.860714 67.93412 C 25.594286 68.281212 26.229286 67.183998 26.229286 66.26104 C 26.229286 65.452835 26.172142 62.682541 26.172142 59.796082 C 16.465 61.874332 14.443572 55.640293 14.443572 55.640293 C 12.883572 51.59996 10.572143 50.561539 10.572143 50.561539 C 7.395 48.425915 10.803572 48.425915 10.803572 48.425915 C 14.327857 48.656834 16.177143 52.004417 16.177143 52.004417 C 19.296429 57.314083 24.322855 55.813831 26.344999 54.890163 C 26.63357 52.639084 27.558573 51.08075 28.540714 50.215164 C 20.798571 49.40696 12.652858 46.40575 12.652858 33.014709 C 12.652858 29.205292 14.038571 26.088627 16.234285 23.664707 C 15.887857 22.799126 14.674286 19.219917 16.581429 14.429459 C 16.581429 14.429459 19.527857 13.505795 26.171429 18.007961 C 29.015778 17.244846 31.949108 16.856644 34.895714 16.853374 C 37.842144 16.853374 40.845715 17.257832 43.619286 18.007961 C 50.263573 13.505795 53.210003 14.429459 53.210003 14.429459 C 55.117146 19.219917 53.902855 22.799126 53.556427 23.664707 C 55.810001 26.088627 57.138573 29.205292 57.138573 33.014709 C 57.138573 46.40575 48.992855 49.348873 41.192856 50.215164 C 42.464287 51.311668 43.561428 53.38921 43.561428 56.679413 C 43.561428 61.354416 43.504284 65.106461 43.504284 66.26033 C 43.504284 67.183998 44.139999 68.281212 45.872856 67.93483 C 59.738575 63.316502 69.733574 50.272541 69.733574 34.862041 C 69.790718 15.583332 54.134289 0 34.895714 0 Z"/>
</svg>
